Simulate reflexes
version=1
nRows=4
nColumns=195
inDegrees=yes
endheader
time	/jointset/ground_platform/platform_rx/value	/jointset/ground_platform/platform_rx/speed	/jointset/ground_platform/platform_ry/value	/jointset/ground_platform/platform_ry/speed	/jointset/ground_platform/platform_rz/value	/jointset/ground_platform/platform_rz/speed	/jointset/ground_platform/platform_ty/value	/jointset/ground_platform/platform_ty/speed	/jointset/ground_pelvis/pelvis_tilt/value	/jointset/ground_pelvis/pelvis_tilt/speed	/jointset/ground_pelvis/pelvis_list/value	/jointset/ground_pelvis/pelvis_list/speed	/jointset/ground_pelvis/pelvis_rotation/value	/jointset/ground_pelvis/pelvis_rotation/speed	/jointset/ground_pelvis/pelvis_tx/value	/jointset/ground_pelvis/pelvis_tx/speed	/jointset/ground_pelvis/pelvis_ty/value	/jointset/ground_pelvis/pelvis_ty/speed	/jointset/ground_pelvis/pelvis_tz/value	/jointset/ground_pelvis/pelvis_tz/speed	/jointset/hip_r/hip_flexion_r/value	/jointset/hip_r/hip_flexion_r/speed	/jointset/hip_r/hip_adduction_r/value	/jointset/hip_r/hip_adduction_r/speed	/jointset/hip_r/hip_rotation_r/value	/jointset/hip_r/hip_rotation_r/speed	/jointset/knee_r/knee_angle_r/value	/jointset/knee_r/knee_angle_r/speed	/jointset/ankle_r/ankle_angle_r/value	/jointset/ankle_r/ankle_angle_r/speed	/jointset/subtalar_r/subtalar_angle_r/value	/jointset/subtalar_r/subtalar_angle_r/speed	/jointset/mtp_r/mtp_angle_r/value	/jointset/mtp_r/mtp_angle_r/speed	/jointset/hip_l/hip_flexion_l/value	/jointset/hip_l/hip_flexion_l/speed	/jointset/hip_l/hip_adduction_l/value	/jointset/hip_l/hip_adduction_l/speed	/jointset/hip_l/hip_rotation_l/value	/jointset/hip_l/hip_rotation_l/speed	/jointset/knee_l/knee_angle_l/value	/jointset/knee_l/knee_angle_l/speed	/jointset/ankle_l/ankle_angle_l/value	/jointset/ankle_l/ankle_angle_l/speed	/jointset/subtalar_l/subtalar_angle_l/value	/jointset/subtalar_l/subtalar_angle_l/speed	/jointset/mtp_l/mtp_angle_l/value	/jointset/mtp_l/mtp_angle_l/speed	/jointset/back/lumbar_extension/value	/jointset/back/lumbar_extension/speed	/jointset/back/lumbar_bending/value	/jointset/back/lumbar_bending/speed	/jointset/back/lumbar_rotation/value	/jointset/back/lumbar_rotation/speed	/forceset/glut_med1_r/activation	/forceset/glut_med1_r/fiber_length	/forceset/glut_med2_r/activation	/forceset/glut_med2_r/fiber_length	/forceset/glut_med3_r/activation	/forceset/glut_med3_r/fiber_length	/forceset/bifemlh_r/activation	/forceset/bifemlh_r/fiber_length	/forceset/bifemsh_r/activation	/forceset/bifemsh_r/fiber_length	/forceset/sar_r/activation	/forceset/sar_r/fiber_length	/forceset/add_mag2_r/activation	/forceset/add_mag2_r/fiber_length	/forceset/tfl_r/activation	/forceset/tfl_r/fiber_length	/forceset/pect_r/activation	/forceset/pect_r/fiber_length	/forceset/grac_r/activation	/forceset/grac_r/fiber_length	/forceset/glut_max1_r/activation	/forceset/glut_max1_r/fiber_length	/forceset/glut_max2_r/activation	/forceset/glut_max2_r/fiber_length	/forceset/glut_max3_r/activation	/forceset/glut_max3_r/fiber_length	/forceset/iliacus_r/activation	/forceset/iliacus_r/fiber_length	/forceset/psoas_r/activation	/forceset/psoas_r/fiber_length	/forceset/quad_fem_r/activation	/forceset/quad_fem_r/fiber_length	/forceset/gem_r/activation	/forceset/gem_r/fiber_length	/forceset/peri_r/activation	/forceset/peri_r/fiber_length	/forceset/rect_fem_r/activation	/forceset/rect_fem_r/fiber_length	/forceset/vas_int_r/activation	/forceset/vas_int_r/fiber_length	/forceset/med_gas_r/activation	/forceset/med_gas_r/fiber_length	/forceset/lat_gas_r/activation	/forceset/lat_gas_r/fiber_length	/forceset/soleus_r/activation	/forceset/soleus_r/fiber_length	/forceset/tib_post_r/activation	/forceset/tib_post_r/fiber_length	/forceset/flex_dig_r/activation	/forceset/flex_dig_r/fiber_length	/forceset/flex_hal_r/activation	/forceset/flex_hal_r/fiber_length	/forceset/tib_ant_r/activation	/forceset/tib_ant_r/fiber_length	/forceset/per_brev_r/activation	/forceset/per_brev_r/fiber_length	/forceset/per_long_r/activation	/forceset/per_long_r/fiber_length	/forceset/per_tert_r/activation	/forceset/per_tert_r/fiber_length	/forceset/ext_dig_r/activation	/forceset/ext_dig_r/fiber_length	/forceset/ext_hal_r/activation	/forceset/ext_hal_r/fiber_length	/forceset/glut_med1_l/activation	/forceset/glut_med1_l/fiber_length	/forceset/glut_med2_l/activation	/forceset/glut_med2_l/fiber_length	/forceset/glut_med3_l/activation	/forceset/glut_med3_l/fiber_length	/forceset/bifemlh_l/activation	/forceset/bifemlh_l/fiber_length	/forceset/bifemsh_l/activation	/forceset/bifemsh_l/fiber_length	/forceset/sar_l/activation	/forceset/sar_l/fiber_length	/forceset/add_mag2_l/activation	/forceset/add_mag2_l/fiber_length	/forceset/tfl_l/activation	/forceset/tfl_l/fiber_length	/forceset/pect_l/activation	/forceset/pect_l/fiber_length	/forceset/grac_l/activation	/forceset/grac_l/fiber_length	/forceset/glut_max1_l/activation	/forceset/glut_max1_l/fiber_length	/forceset/glut_max2_l/activation	/forceset/glut_max2_l/fiber_length	/forceset/glut_max3_l/activation	/forceset/glut_max3_l/fiber_length	/forceset/iliacus_l/activation	/forceset/iliacus_l/fiber_length	/forceset/psoas_l/activation	/forceset/psoas_l/fiber_length	/forceset/quad_fem_l/activation	/forceset/quad_fem_l/fiber_length	/forceset/gem_l/activation	/forceset/gem_l/fiber_length	/forceset/peri_l/activation	/forceset/peri_l/fiber_length	/forceset/rect_fem_l/activation	/forceset/rect_fem_l/fiber_length	/forceset/vas_int_l/activation	/forceset/vas_int_l/fiber_length	/forceset/med_gas_l/activation	/forceset/med_gas_l/fiber_length	/forceset/lat_gas_l/activation	/forceset/lat_gas_l/fiber_length	/forceset/soleus_l/activation	/forceset/soleus_l/fiber_length	/forceset/tib_post_l/activation	/forceset/tib_post_l/fiber_length	/forceset/flex_dig_l/activation	/forceset/flex_dig_l/fiber_length	/forceset/flex_hal_l/activation	/forceset/flex_hal_l/fiber_length	/forceset/tib_ant_l/activation	/forceset/tib_ant_l/fiber_length	/forceset/per_brev_l/activation	/forceset/per_brev_l/fiber_length	/forceset/per_long_l/activation	/forceset/per_long_l/fiber_length	/forceset/per_tert_l/activation	/forceset/per_tert_l/fiber_length	/forceset/ext_dig_l/activation	/forceset/ext_dig_l/fiber_length	/forceset/ext_hal_l/activation	/forceset/ext_hal_l/fiber_length	/forceset/ercspn_r/activation	/forceset/ercspn_r/fiber_length	/forceset/ercspn_l/activation	/forceset/ercspn_l/fiber_length	/forceset/intobl_r/activation	/forceset/intobl_r/fiber_length	/forceset/intobl_l/activation	/forceset/intobl_l/fiber_length	/forceset/extobl_r/activation	/forceset/extobl_r/fiber_length	/forceset/extobl_l/activation	/forceset/extobl_l/fiber_length
      0.32035721	     20.00000000	     -0.00000000	      0.00000000	     -0.00000000	     -0.00000000	      0.00000000	      0.25000000	      0.00000000	     -8.93861164	      9.04768556	     -0.20242418	     -0.63150097	      0.72519405	      2.25608299	      0.05226379	      0.00466734	      1.17393075	     -3.12062582	     -0.00065491	     -0.00169580	     11.10310560	    -25.93033621	     -1.04824572	     -0.84455386	     -0.35206754	    -32.69461590	     -9.09099409	     26.86522544	      0.61982439	    159.51347771	      5.68057094	    308.92662367	      0.00000000	      0.00000000	    -19.99999998	     -0.00000000	     10.00000028	      0.00000000	      4.99999985	     -0.00000000	   -119.99999986	      0.00000000	     11.49999977	      0.00000000	     -0.03000064	     -0.00000000	      0.00000000	      0.00000000	     -3.51911399	    -10.82701518	     -0.00540051	     -0.00331771	      0.11715297	      0.26616002	      0.01063893	      0.04546894	     -0.01580381	      0.08151928	     -0.01580381	      0.06390475	     -0.01577136	      0.10049167	      0.00574857	      0.16753573	     -0.00142379	      0.45843635	     -0.01575610	      0.07724988	      0.01757028	      0.10156174	      0.00856902	      0.06681137	     -0.01091808	      0.31298102	     -0.01580381	      0.08362161	     -0.01580381	      0.09240983	     -0.01580381	      0.10535268	      0.01804289	      0.09939519	      0.01736543	      0.09348155	     -0.01580381	      0.04600888	     -0.01580381	      0.02509219	     -0.01580381	      0.02288572	     -0.01503347	      0.09874209	     -0.01580381	      0.07337861	     -0.01160384	      0.09044782	     -0.00780038	      0.06323915	     -0.01331655	      0.07866688	     -0.00296573	      0.03278512	     -0.00344857	      0.03060962	     -0.00671391	      0.03843389	      0.01660462	      0.07834953	      0.00916670	      0.05215291	      0.00809207	      0.05251367	      0.01485359	      0.08128107	      0.01520616	      0.09664131	      0.01420112	      0.10317465	     -0.01580381	      0.04646954	     -0.01580381	      0.07924345	     -0.01580381	      0.06066849	     -0.01580381	      0.02207317	     -0.01580381	      0.12238178	     -0.01580381	      0.45556126	     -0.01580381	      0.05828642	     -0.01580381	      0.13391495	     -0.01580381	      0.07307389	     -0.01580381	      0.24301553	     -0.01580381	      0.06638073	     -0.01580381	      0.06554424	     -0.01580381	      0.05770037	     -0.01580381	      0.11895704	     -0.01580381	      0.11276383	     -0.01580381	      0.04385542	     -0.01580381	      0.02477863	     -0.01580381	      0.02332635	     -0.01580381	      0.18252187	     -0.01580381	      0.13945923	     -0.01580381	      0.06773754	     -0.01580381	      0.04190316	     -0.01580381	      0.08593352	     -0.01580381	      0.03561974	     -0.01580381	      0.03422334	     -0.01580381	      0.04261814	     -0.01580381	      0.07211219	     -0.01580381	      0.05030460	     -0.01580381	      0.05155950	     -0.01580381	      0.07464108	     -0.01580381	      0.08888356	     -0.01580381	      0.09641127	      0.00184667	      0.12214508	      0.00167186	      0.12217884	     -0.01580381	      0.09566274	     -0.01573857	      0.09550239	     -0.01580381	      0.12929572	     -0.01580381	      0.12940427
      0.32041519	     20.00000000	      0.00000000	      0.00000000	     -0.00000000	     -0.00000000	      0.00000000	      0.25000000	      0.00000000	     -8.93808629	      9.07346404	     -0.20246313	     -0.71432086	      0.72532476	      2.25144126	      0.05226406	      0.00449685	      1.17374980	     -3.12085897	     -0.00065502	     -0.00222742	     11.10161498	    -25.46622993	     -1.04831497	     -1.55662975	     -0.35404724	    -35.60221752	     -9.08952582	     23.64817756	      0.63050312	    209.47358800	      5.70078566	    389.08427432	      0.00000000	      0.00000000	    -19.99999998	     -0.00000000	     10.00000028	      0.00000000	      4.99999985	     -0.00000000	   -119.99999986	      0.00000000	     11.49999977	      0.00000000	     -0.03000064	     -0.00000000	      0.00000000	      0.00000000	     -3.51974333	    -10.88210991	     -0.00539605	      0.16165359	      0.11716906	      0.29050823	      0.01071192	      0.04546927	     -0.01581127	      0.08151880	     -0.01581127	      0.06390372	     -0.01577883	      0.10049094	      0.00574529	      0.16753658	     -0.00142858	      0.45843788	     -0.01576357	      0.07724900	      0.01757172	      0.10156276	      0.00856917	      0.06681197	     -0.01092456	      0.31298147	     -0.01581127	      0.08362019	     -0.01581127	      0.09240802	     -0.01581127	      0.10535014	      0.01804375	      0.09939641	      0.01736528	      0.09348271	     -0.01581127	      0.04600767	     -0.01581127	      0.02509147	     -0.01581127	      0.02288498	     -0.01504094	      0.09874164	     -0.01581127	      0.07337700	     -0.01008913	      0.09044767	     -0.00585311	      0.06323891	     -0.01190435	      0.07866609	     -0.00297320	      0.03278497	     -0.00345603	      0.03060953	     -0.00672138	      0.03843359	      0.01659199	      0.07835035	      0.01260168	      0.05215268	      0.01171685	      0.05251344	      0.01502625	      0.08128160	      0.01519464	      0.09664231	      0.01419039	      0.10317556	     -0.01581127	      0.04646954	     -0.01581127	      0.07924345	     -0.01581127	      0.06066849	     -0.01581127	      0.02207317	     -0.01581127	      0.12238178	     -0.01581127	      0.45556126	     -0.01581127	      0.05828642	     -0.01581127	      0.13391495	     -0.01581127	      0.07307389	     -0.01581127	      0.24301553	     -0.01581127	      0.06638073	     -0.01581127	      0.06554424	     -0.01581127	      0.05770037	     -0.01581127	      0.11895704	     -0.01581127	      0.11276383	     -0.01581127	      0.04385542	     -0.01581127	      0.02477863	     -0.01581127	      0.02332635	     -0.01581127	      0.18252187	     -0.01581127	      0.13945923	     -0.01581127	      0.06773754	     -0.01581127	      0.04190316	     -0.01581127	      0.08593352	     -0.01581127	      0.03561974	     -0.01581127	      0.03422335	     -0.01581127	      0.04261815	     -0.01581127	      0.07211219	     -0.01581127	      0.05030460	     -0.01581127	      0.05155950	     -0.01581127	      0.07464108	     -0.01581127	      0.08888356	     -0.01581127	      0.09641127	      0.00184326	      0.12214554	      0.00166856	      0.12217926	     -0.01581127	      0.09566223	     -0.01574604	      0.09550175	     -0.01581127	      0.12929505	     -0.01581127	      0.12940356
      0.32045374	     20.00000000	      0.00000000	      0.00000000	     -0.00000000	     -0.00000000	      0.00000000	      0.25000000	      0.00000000	     -8.93773617	      9.09306110	     -0.20249189	     -0.77967693	      0.72541140	      2.24262281	      0.05226423	      0.00435902	      1.17362950	     -3.12097787	     -0.00065511	     -0.00261406	     11.10064048	    -25.08214742	     -1.04838477	     -2.07000924	     -0.35545668	    -37.50783928	     -9.08866411	     20.96452701	      0.63924627	    244.23894076	      5.71684233	    444.06764045	      0.00000000	      0.00000000	    -19.99999998	     -0.00000000	     10.00000028	      0.00000000	      4.99999985	     -0.00000000	   -119.99999986	      0.00000000	     11.49999977	      0.00000000	     -0.03000064	     -0.00000000	      0.00000000	      0.00000000	     -3.52016361	    -10.92509697	     -0.00538743	      0.28853732	      0.11718069	      0.31438931	      0.01076976	      0.04546948	     -0.01581624	      0.08151848	     -0.01581624	      0.06390303	     -0.01578379	      0.10049046	      0.00574278	      0.16753714	     -0.00143186	      0.45843888	     -0.01576853	      0.07724842	      0.01757458	      0.10156344	      0.00857066	      0.06681238	     -0.01092896	      0.31298176	     -0.01581624	      0.08361924	     -0.01581624	      0.09240682	     -0.01581624	      0.10534845	      0.01804395	      0.09939722	      0.01736514	      0.09348349	     -0.01581624	      0.04600684	     -0.01581624	      0.02509099	     -0.01581624	      0.02288449	     -0.01504564	      0.09874135	     -0.01581624	      0.07337594	     -0.00885468	      0.09044759	     -0.00426731	      0.06323876	     -0.01072569	      0.07866561	     -0.00297816	      0.03278486	     -0.00346099	      0.03060946	     -0.00672634	      0.03843338	      0.01658360	      0.07835084	      0.01530792	      0.05215225	      0.01457969	      0.05251301	      0.01515657	      0.08128194	      0.01518699	      0.09664297	      0.01418327	      0.10317613	     -0.01581624	      0.04646954	     -0.01581624	      0.07924345	     -0.01581624	      0.06066849	     -0.01581624	      0.02207317	     -0.01581624	      0.12238178	     -0.01581624	      0.45556126	     -0.01581624	      0.05828642	     -0.01581624	      0.13391495	     -0.01581624	      0.07307389	     -0.01581624	      0.24301553	     -0.01581624	      0.06638073	     -0.01581624	      0.06554424	     -0.01581624	      0.05770037	     -0.01581624	      0.11895704	     -0.01581624	      0.11276383	     -0.01581624	      0.04385542	     -0.01581624	      0.02477863	     -0.01581624	      0.02332635	     -0.01581624	      0.18252187	     -0.01581624	      0.13945923	     -0.01581624	      0.06773754	     -0.01581624	      0.04190316	     -0.01581624	      0.08593352	     -0.01581624	      0.03561974	     -0.01581624	      0.03422336	     -0.01581624	      0.04261815	     -0.01581624	      0.07211219	     -0.01581624	      0.05030460	     -0.01581624	      0.05155950	     -0.01581624	      0.07464108	     -0.01581624	      0.08888356	     -0.01581624	      0.09641127	      0.00184098	      0.12214585	      0.00166642	      0.12217955	     -0.01581624	      0.09566189	     -0.01575100	      0.09550133	     -0.01581624	      0.12929461	     -0.01581624	      0.12940309
      0.32048257	     20.00000000	      0.00000000	      0.00000000	     -0.00000000	      0.00000000	      0.00000000	      0.25000000	      0.00000000	     -8.93747376	      9.10946310	     -0.20251517	     -0.83696289	      0.72547590	      2.22982919	      0.05226435	      0.00423474	      1.17353951	     -3.12103917	     -0.00065519	     -0.00292102	     11.09992223	    -24.72670952	     -1.04845023	     -2.47245787	     -0.35655714	    -38.78915643	     -9.08809437	     18.46078743	      0.64666093	    269.88338050	      5.73023310	    484.44000372	      0.00000000	      0.00000000	    -19.99999998	     -0.00000000	     10.00000028	      0.00000000	      4.99999985	     -0.00000000	   -119.99999986	      0.00000000	     11.49999977	      0.00000000	     -0.03000064	     -0.00000000	      0.00000000	      0.00000000	     -3.52047913	    -10.96226652	     -0.00537758	      0.39655819	      0.11719010	      0.33989371	      0.01081740	      0.04546964	     -0.01581995	      0.08151824	     -0.01581995	      0.06390251	     -0.01578751	      0.10049010	      0.00574070	      0.16753755	     -0.00143437	      0.45843962	     -0.01577224	      0.07724799	      0.01757781	      0.10156395	      0.00857265	      0.06681268	     -0.01093231	      0.31298198	     -0.01581995	      0.08361853	     -0.01581995	      0.09240592	     -0.01581995	      0.10534719	      0.01804393	      0.09939783	      0.01736498	      0.09348407	     -0.01581995	      0.04600622	     -0.01581995	      0.02509063	     -0.01581995	      0.02288412	     -0.01504869	      0.09874113	     -0.01581995	      0.07337515	     -0.00781119	      0.09044754	     -0.00292728	      0.06323866	     -0.00971628	      0.07866526	     -0.00298187	      0.03278477	     -0.00346471	      0.03060940	     -0.00673005	      0.03843323	      0.01657733	      0.07835118	      0.01754733	      0.05215179	      0.01694931	      0.05251250	      0.01526128	      0.08128218	      0.01518126	      0.09664346	      0.01417794	      0.10317654	     -0.01581995	      0.04646954	     -0.01581995	      0.07924345	     -0.01581995	      0.06066849	     -0.01581995	      0.02207317	     -0.01581995	      0.12238178	     -0.01581995	      0.45556126	     -0.01581995	      0.05828642	     -0.01581995	      0.13391495	     -0.01581995	      0.07307389	     -0.01581995	      0.24301553	     -0.01581995	      0.06638073	     -0.01581995	      0.06554424	     -0.01581995	      0.05770037	     -0.01581995	      0.11895704	     -0.01581995	      0.11276383	     -0.01581995	      0.04385542	     -0.01581995	      0.02477863	     -0.01581995	      0.02332635	     -0.01581995	      0.18252186	     -0.01581995	      0.13945923	     -0.01581995	      0.06773754	     -0.01581995	      0.04190316	     -0.01581995	      0.08593352	     -0.01581995	      0.03561974	     -0.01581995	      0.03422336	     -0.01581995	      0.04261816	     -0.01581995	      0.07211219	     -0.01581995	      0.05030460	     -0.01581995	      0.05155950	     -0.01581995	      0.07464108	     -0.01581995	      0.08888356	     -0.01581995	      0.09641127	      0.00183926	      0.12214607	      0.00166484	      0.12217976	     -0.01581995	      0.09566164	     -0.01575471	      0.09550101	     -0.01581995	      0.12929428	     -0.01581995	      0.12940273
